<svg viewBox="0 0 26 42" version="1.1" xmlns="http://www.w3.org/2000/svg" xmlns:xlink="http://www.w3.org/1999/xlink">
	<g>
		<path fill="#000000" d="M21.7678843,41.7773399 C22.1027061,41.7773399 22.4793807,41.609929 22.730497,41.3588126 L24.8231335,39.2661762 C25.0742498,39.0150598 25.2416607,38.6383853 25.2416607,38.3035634 C25.2416607,37.9687416 25.0742498,37.5920671 24.8231335,37.3409507 L8.37501118,20.8928284 L24.8231335,4.44470612 C25.0742498,4.19358975 25.2416607,3.81691519 25.2416607,3.48209336 C25.2416607,3.10541881 25.0742498,2.77059698 24.8231335,2.51948061 L22.730497,0.426844186 C22.4793807,0.175727815 22.1027061,0.00831690151 21.7678843,0.00831690151 C21.4330625,0.00831690151 21.0563879,0.175727815 20.8052715,0.426844186 L1.30190007,19.9302157 C1.05078369,20.181332 0.883372781,20.5580066 0.883372781,20.8928284 C0.883372781,21.2276502 1.05078369,21.6043248 1.30190007,21.8554412 L20.8052715,41.3588126 C21.0563879,41.609929 21.4330625,41.7773399 21.7678843,41.7773399 Z" id="path-1"></path>
	</g>
</svg>
